<mxfile host="app.diagrams.net" modified="2024-04-23T07:14:31.325Z" agent="Mozilla/5.0 (Windows NT 10.0; Win64; x64) AppleWebKit/537.36 (KHTML, like Gecko) Chrome/123.0.0.0 Safari/537.36 Edg/123.0.0.0" etag="GpCZkC5VZCoiGHOIm0XU" version="24.2.5" type="github">
  <diagram name="Page-1" id="ZBUkuwBRwBMH32Tvxrr0">
    <mxGraphModel dx="855" dy="362" grid="1" gridSize="10" guides="1" tooltips="1" connect="1" arrows="1" fold="1" page="1" pageScale="1" pageWidth="827" pageHeight="1169" math="0" shadow="0">
      <root>
        <mxCell id="0" />
        <mxCell id="1" parent="0" />
        <mxCell id="adzzH29iUu1mLvGQS6G6-1" value="DAG Datamarte" style="rounded=1;whiteSpace=wrap;html=1;" vertex="1" parent="1">
          <mxGeometry x="740" y="320" width="120" height="60" as="geometry" />
        </mxCell>
        <mxCell id="adzzH29iUu1mLvGQS6G6-33" style="edgeStyle=orthogonalEdgeStyle;rounded=0;orthogonalLoop=1;jettySize=auto;html=1;entryX=0;entryY=0.5;entryDx=0;entryDy=0;" edge="1" parent="1" source="adzzH29iUu1mLvGQS6G6-2" target="adzzH29iUu1mLvGQS6G6-1">
          <mxGeometry relative="1" as="geometry" />
        </mxCell>
        <mxCell id="adzzH29iUu1mLvGQS6G6-2" value="DAG Control Fichier A" style="rounded=1;whiteSpace=wrap;html=1;" vertex="1" parent="1">
          <mxGeometry x="240" y="220" width="170" height="60" as="geometry" />
        </mxCell>
        <mxCell id="adzzH29iUu1mLvGQS6G6-4" value="DAG Control Fichier B" style="rounded=1;whiteSpace=wrap;html=1;" vertex="1" parent="1">
          <mxGeometry x="240" y="300" width="170" height="60" as="geometry" />
        </mxCell>
        <mxCell id="adzzH29iUu1mLvGQS6G6-5" value="DAG Control Fichier C" style="rounded=1;whiteSpace=wrap;html=1;" vertex="1" parent="1">
          <mxGeometry x="240" y="380" width="170" height="60" as="geometry" />
        </mxCell>
        <mxCell id="adzzH29iUu1mLvGQS6G6-9" value="1 fois declenché par DAG A" style="rounded=0;whiteSpace=wrap;html=1;" vertex="1" parent="1">
          <mxGeometry x="870" y="260" width="180" height="20" as="geometry" />
        </mxCell>
        <mxCell id="adzzH29iUu1mLvGQS6G6-10" value="2em fois declenché par DAG B" style="rounded=0;whiteSpace=wrap;html=1;" vertex="1" parent="1">
          <mxGeometry x="870" y="290" width="180" height="20" as="geometry" />
        </mxCell>
        <mxCell id="adzzH29iUu1mLvGQS6G6-11" value="3em fois declenché par DAG C" style="rounded=0;whiteSpace=wrap;html=1;" vertex="1" parent="1">
          <mxGeometry x="870" y="320" width="180" height="20" as="geometry" />
        </mxCell>
        <mxCell id="adzzH29iUu1mLvGQS6G6-13" value="T_progress_chargement_fichier" style="shape=table;startSize=30;container=1;collapsible=0;childLayout=tableLayout;strokeColor=default;fontSize=16;" vertex="1" parent="1">
          <mxGeometry x="580" y="780" width="283" height="155" as="geometry" />
        </mxCell>
        <mxCell id="adzzH29iUu1mLvGQS6G6-14" value="" style="shape=tableRow;horizontal=0;startSize=0;swimlaneHead=0;swimlaneBody=0;strokeColor=inherit;top=0;left=0;bottom=0;right=0;collapsible=0;dropTarget=0;fillColor=none;points=[[0,0.5],[1,0.5]];portConstraint=eastwest;fontSize=16;" vertex="1" parent="adzzH29iUu1mLvGQS6G6-13">
          <mxGeometry y="30" width="283" height="42" as="geometry" />
        </mxCell>
        <mxCell id="adzzH29iUu1mLvGQS6G6-15" value="Reporting date" style="shape=partialRectangle;html=1;whiteSpace=wrap;connectable=0;strokeColor=inherit;overflow=hidden;fillColor=none;top=0;left=0;bottom=0;right=0;pointerEvents=1;fontSize=16;" vertex="1" parent="adzzH29iUu1mLvGQS6G6-14">
          <mxGeometry width="94" height="42" as="geometry">
            <mxRectangle width="94" height="42" as="alternateBounds" />
          </mxGeometry>
        </mxCell>
        <mxCell id="adzzH29iUu1mLvGQS6G6-16" value="file type" style="shape=partialRectangle;html=1;whiteSpace=wrap;connectable=0;strokeColor=inherit;overflow=hidden;fillColor=none;top=0;left=0;bottom=0;right=0;pointerEvents=1;fontSize=16;" vertex="1" parent="adzzH29iUu1mLvGQS6G6-14">
          <mxGeometry x="94" width="95" height="42" as="geometry">
            <mxRectangle width="95" height="42" as="alternateBounds" />
          </mxGeometry>
        </mxCell>
        <mxCell id="adzzH29iUu1mLvGQS6G6-17" value="SYS_APL" style="shape=partialRectangle;html=1;whiteSpace=wrap;connectable=0;strokeColor=inherit;overflow=hidden;fillColor=none;top=0;left=0;bottom=0;right=0;pointerEvents=1;fontSize=16;" vertex="1" parent="adzzH29iUu1mLvGQS6G6-14">
          <mxGeometry x="189" width="94" height="42" as="geometry">
            <mxRectangle width="94" height="42" as="alternateBounds" />
          </mxGeometry>
        </mxCell>
        <mxCell id="adzzH29iUu1mLvGQS6G6-18" value="" style="shape=tableRow;horizontal=0;startSize=0;swimlaneHead=0;swimlaneBody=0;strokeColor=inherit;top=0;left=0;bottom=0;right=0;collapsible=0;dropTarget=0;fillColor=none;points=[[0,0.5],[1,0.5]];portConstraint=eastwest;fontSize=16;" vertex="1" parent="adzzH29iUu1mLvGQS6G6-13">
          <mxGeometry y="72" width="283" height="41" as="geometry" />
        </mxCell>
        <mxCell id="adzzH29iUu1mLvGQS6G6-19" value="29-02-2024" style="shape=partialRectangle;html=1;whiteSpace=wrap;connectable=0;strokeColor=inherit;overflow=hidden;fillColor=none;top=0;left=0;bottom=0;right=0;pointerEvents=1;fontSize=16;" vertex="1" parent="adzzH29iUu1mLvGQS6G6-18">
          <mxGeometry width="94" height="41" as="geometry">
            <mxRectangle width="94" height="41" as="alternateBounds" />
          </mxGeometry>
        </mxCell>
        <mxCell id="adzzH29iUu1mLvGQS6G6-20" value="A" style="shape=partialRectangle;html=1;whiteSpace=wrap;connectable=0;strokeColor=inherit;overflow=hidden;fillColor=none;top=0;left=0;bottom=0;right=0;pointerEvents=1;fontSize=16;" vertex="1" parent="adzzH29iUu1mLvGQS6G6-18">
          <mxGeometry x="94" width="95" height="41" as="geometry">
            <mxRectangle width="95" height="41" as="alternateBounds" />
          </mxGeometry>
        </mxCell>
        <mxCell id="adzzH29iUu1mLvGQS6G6-21" value="0B" style="shape=partialRectangle;html=1;whiteSpace=wrap;connectable=0;strokeColor=inherit;overflow=hidden;fillColor=none;top=0;left=0;bottom=0;right=0;pointerEvents=1;fontSize=16;" vertex="1" parent="adzzH29iUu1mLvGQS6G6-18">
          <mxGeometry x="189" width="94" height="41" as="geometry">
            <mxRectangle width="94" height="41" as="alternateBounds" />
          </mxGeometry>
        </mxCell>
        <mxCell id="adzzH29iUu1mLvGQS6G6-22" value="" style="shape=tableRow;horizontal=0;startSize=0;swimlaneHead=0;swimlaneBody=0;strokeColor=inherit;top=0;left=0;bottom=0;right=0;collapsible=0;dropTarget=0;fillColor=none;points=[[0,0.5],[1,0.5]];portConstraint=eastwest;fontSize=16;" vertex="1" parent="adzzH29iUu1mLvGQS6G6-13">
          <mxGeometry y="113" width="283" height="42" as="geometry" />
        </mxCell>
        <mxCell id="adzzH29iUu1mLvGQS6G6-23" value="29-02-2024" style="shape=partialRectangle;html=1;whiteSpace=wrap;connectable=0;strokeColor=inherit;overflow=hidden;fillColor=none;top=0;left=0;bottom=0;right=0;pointerEvents=1;fontSize=16;" vertex="1" parent="adzzH29iUu1mLvGQS6G6-22">
          <mxGeometry width="94" height="42" as="geometry">
            <mxRectangle width="94" height="42" as="alternateBounds" />
          </mxGeometry>
        </mxCell>
        <mxCell id="adzzH29iUu1mLvGQS6G6-24" value="B" style="shape=partialRectangle;html=1;whiteSpace=wrap;connectable=0;strokeColor=inherit;overflow=hidden;fillColor=none;top=0;left=0;bottom=0;right=0;pointerEvents=1;fontSize=16;" vertex="1" parent="adzzH29iUu1mLvGQS6G6-22">
          <mxGeometry x="94" width="95" height="42" as="geometry">
            <mxRectangle width="95" height="42" as="alternateBounds" />
          </mxGeometry>
        </mxCell>
        <mxCell id="adzzH29iUu1mLvGQS6G6-25" value="22" style="shape=partialRectangle;html=1;whiteSpace=wrap;connectable=0;strokeColor=inherit;overflow=hidden;fillColor=none;top=0;left=0;bottom=0;right=0;pointerEvents=1;fontSize=16;" vertex="1" parent="adzzH29iUu1mLvGQS6G6-22">
          <mxGeometry x="189" width="94" height="42" as="geometry">
            <mxRectangle width="94" height="42" as="alternateBounds" />
          </mxGeometry>
        </mxCell>
        <mxCell id="adzzH29iUu1mLvGQS6G6-26" value="is_datamarte_start" style="rounded=0;whiteSpace=wrap;html=1;" vertex="1" parent="1">
          <mxGeometry x="863" y="810" width="110" height="40" as="geometry" />
        </mxCell>
        <mxCell id="adzzH29iUu1mLvGQS6G6-27" value="YES" style="rounded=0;whiteSpace=wrap;html=1;" vertex="1" parent="1">
          <mxGeometry x="863" y="850" width="110" height="50" as="geometry" />
        </mxCell>
        <mxCell id="adzzH29iUu1mLvGQS6G6-28" value="YES" style="rounded=0;whiteSpace=wrap;html=1;" vertex="1" parent="1">
          <mxGeometry x="863" y="895" width="110" height="40" as="geometry" />
        </mxCell>
        <mxCell id="adzzH29iUu1mLvGQS6G6-30" value="donnees charge dans BQ (exist dans la table)&lt;br&gt;&amp;amp;&amp;amp;&lt;div&gt;s&#39;il y a une DAG qui est en cours&lt;/div&gt;" style="text;html=1;align=center;verticalAlign=middle;resizable=0;points=[];autosize=1;strokeColor=none;fillColor=none;" vertex="1" parent="1">
          <mxGeometry x="875" y="353" width="270" height="60" as="geometry" />
        </mxCell>
        <mxCell id="adzzH29iUu1mLvGQS6G6-31" value="DAG Verifier fichier 6+3 au j+6" style="rounded=1;whiteSpace=wrap;html=1;" vertex="1" parent="1">
          <mxGeometry x="350" y="510" width="200" height="60" as="geometry" />
        </mxCell>
        <mxCell id="adzzH29iUu1mLvGQS6G6-34" value="GCS + Server" style="text;html=1;align=center;verticalAlign=middle;resizable=0;points=[];autosize=1;strokeColor=none;fillColor=none;" vertex="1" parent="1">
          <mxGeometry x="565" y="525" width="100" height="30" as="geometry" />
        </mxCell>
      </root>
    </mxGraphModel>
  </diagram>
</mxfile>
